<svg width="173" height="40" viewBox="0 0 173 40" fill="none" xmlns="http://www.w3.org/2000/svg">
<path d="M34.1422 5.85781C30.3647 2.08031 25.3422 0 20 0C14.6578 0 9.63531 2.08031 5.85781 5.85781C2.08031 9.63531 0 14.6578 0 20C0 25.3422 2.08039 30.3646 5.85781 34.1422C9.63523 37.9198 14.6578 40 20 40C25.3422 40 30.3647 37.9197 34.1422 34.1422C37.9197 30.3647 40 25.3422 40 20C40 14.6578 37.9196 9.63539 34.1422 5.85781Z" fill="#33CC95"/>
<mask id="mask0_4_2" style="mask-type:luminance" maskUnits="userSpaceOnUse" x="6" y="6" width="29" height="29">
<path d="M34.2858 6.85715H6.85718V34.2857H34.2858V6.85715Z" fill="white"/>
</mask>
<g mask="url(#mask0_4_2)">
<path d="M20.5715 8V33.1429" stroke="white" stroke-width="2" stroke-linecap="round" stroke-linejoin="round"/>
<path d="M26.2858 12.5714H17.7144C16.6535 12.5714 15.6361 12.9929 14.886 13.743C14.1358 14.4931 13.7144 15.5106 13.7144 16.5714C13.7144 17.6323 14.1358 18.6497 14.886 19.3999C15.6361 20.15 16.6535 20.5714 17.7144 20.5714H23.4287C24.4895 20.5714 25.507 20.9929 26.2571 21.743C27.0073 22.4932 27.4287 23.5106 27.4287 24.5714C27.4287 25.6323 27.0073 26.6497 26.2571 27.3999C25.507 28.15 24.4895 28.5714 23.4287 28.5714H13.7144" stroke="white" stroke-width="2" stroke-linecap="round" stroke-linejoin="round"/>
</g>
<path d="M64.569 14.066V26H61.662V18.843L58.993 26H56.647L53.961 18.826V26H51.054V14.066H54.488L57.837 22.328L61.152 14.066H64.569ZM76.3495 16.514L70.3995 30.505H67.2715L69.4475 25.677L65.5885 16.514H68.8355L71.0285 22.447L73.2045 16.514H76.3495ZM88.7722 14.066V16.395H83.9102V18.911H87.5482V21.172H83.9102V26H81.0032V14.066H88.7722ZM91.7621 15.528C91.2521 15.528 90.8328 15.3807 90.5041 15.086C90.1868 14.78 90.0281 14.406 90.0281 13.964C90.0281 13.5107 90.1868 13.1367 90.5041 12.842C90.8328 12.536 91.2521 12.383 91.7621 12.383C92.2608 12.383 92.6688 12.536 92.9861 12.842C93.3148 13.1367 93.4791 13.5107 93.4791 13.964C93.4791 14.406 93.3148 14.78 92.9861 15.086C92.6688 15.3807 92.2608 15.528 91.7621 15.528ZM93.2071 16.514V26H90.3001V16.514H93.2071ZM101.094 16.412C102.204 16.412 103.088 16.7747 103.746 17.5C104.414 18.214 104.749 19.2 104.749 20.458V26H101.859V20.849C101.859 20.2143 101.694 19.7213 101.366 19.37C101.037 19.0187 100.595 18.843 100.04 18.843C99.4844 18.843 99.0424 19.0187 98.7138 19.37C98.3851 19.7213 98.2208 20.2143 98.2208 20.849V26H95.3138V16.514H98.2208V17.772C98.5154 17.3527 98.9121 17.024 99.4108 16.786C99.9094 16.5367 100.47 16.412 101.094 16.412ZM106.191 21.24C106.191 20.2653 106.372 19.4097 106.735 18.673C107.109 17.9363 107.613 17.3697 108.248 16.973C108.883 16.5763 109.591 16.378 110.373 16.378C111.042 16.378 111.625 16.514 112.124 16.786C112.634 17.058 113.025 17.415 113.297 17.857V16.514H116.204V26H113.297V24.657C113.014 25.099 112.617 25.456 112.107 25.728C111.608 26 111.025 26.136 110.356 26.136C109.585 26.136 108.883 25.9377 108.248 25.541C107.613 25.133 107.109 24.5607 106.735 23.824C106.372 23.076 106.191 22.2147 106.191 21.24ZM113.297 21.257C113.297 20.5317 113.093 19.9593 112.685 19.54C112.288 19.1207 111.801 18.911 111.223 18.911C110.645 18.911 110.152 19.1207 109.744 19.54C109.347 19.948 109.149 20.5147 109.149 21.24C109.149 21.9653 109.347 22.5433 109.744 22.974C110.152 23.3933 110.645 23.603 111.223 23.603C111.801 23.603 112.288 23.3933 112.685 22.974C113.093 22.5547 113.297 21.9823 113.297 21.257ZM124.087 16.412C125.198 16.412 126.082 16.7747 126.739 17.5C127.408 18.214 127.742 19.2 127.742 20.458V26H124.852V20.849C124.852 20.2143 124.688 19.7213 124.359 19.37C124.03 19.0187 123.588 18.843 123.033 18.843C122.478 18.843 122.036 19.0187 121.707 19.37C121.378 19.7213 121.214 20.2143 121.214 20.849V26H118.307V16.514H121.214V17.772C121.509 17.3527 121.905 17.024 122.404 16.786C122.903 16.5367 123.464 16.412 124.087 16.412ZM129.184 21.257C129.184 20.271 129.382 19.4097 129.779 18.673C130.187 17.9363 130.748 17.3697 131.462 16.973C132.187 16.5763 133.015 16.378 133.944 16.378C135.134 16.378 136.126 16.6897 136.919 17.313C137.724 17.9363 138.251 18.8147 138.5 19.948H135.406C135.145 19.2227 134.641 18.86 133.893 18.86C133.36 18.86 132.935 19.0697 132.618 19.489C132.301 19.897 132.142 20.4863 132.142 21.257C132.142 22.0277 132.301 22.6227 132.618 23.042C132.935 23.45 133.36 23.654 133.893 23.654C134.641 23.654 135.145 23.2913 135.406 22.566H138.5C138.251 23.6767 137.724 24.5493 136.919 25.184C136.114 25.8187 135.123 26.136 133.944 26.136C133.015 26.136 132.187 25.9377 131.462 25.541C130.748 25.1443 130.187 24.5777 129.779 23.841C129.382 23.1043 129.184 22.243 129.184 21.257ZM148.997 21.104C148.997 21.376 148.98 21.6593 148.946 21.954H142.367C142.412 22.5433 142.599 22.9967 142.928 23.314C143.268 23.62 143.682 23.773 144.169 23.773C144.894 23.773 145.399 23.467 145.682 22.855H148.776C148.617 23.4783 148.328 24.0393 147.909 24.538C147.501 25.0367 146.985 25.4277 146.362 25.711C145.739 25.9943 145.042 26.136 144.271 26.136C143.342 26.136 142.514 25.9377 141.789 25.541C141.064 25.1443 140.497 24.5777 140.089 23.841C139.681 23.1043 139.477 22.243 139.477 21.257C139.477 20.271 139.675 19.4097 140.072 18.673C140.48 17.9363 141.047 17.3697 141.772 16.973C142.497 16.5763 143.33 16.378 144.271 16.378C145.189 16.378 146.005 16.5707 146.719 16.956C147.433 17.3413 147.988 17.891 148.385 18.605C148.793 19.319 148.997 20.152 148.997 21.104ZM146.022 20.339C146.022 19.8403 145.852 19.4437 145.512 19.149C145.172 18.8543 144.747 18.707 144.237 18.707C143.75 18.707 143.336 18.8487 142.996 19.132C142.667 19.4153 142.463 19.8177 142.384 20.339H146.022ZM154.39 26.136C153.562 26.136 152.826 25.9943 152.18 25.711C151.534 25.4277 151.024 25.0423 150.65 24.555C150.276 24.0563 150.066 23.501 150.021 22.889H152.894C152.928 23.2177 153.081 23.484 153.353 23.688C153.625 23.892 153.959 23.994 154.356 23.994C154.718 23.994 154.996 23.926 155.189 23.79C155.393 23.6427 155.495 23.4557 155.495 23.229C155.495 22.957 155.353 22.7587 155.07 22.634C154.786 22.498 154.327 22.3507 153.693 22.192C153.013 22.0333 152.446 21.869 151.993 21.699C151.539 21.5177 151.148 21.24 150.82 20.866C150.491 20.4807 150.327 19.965 150.327 19.319C150.327 18.775 150.474 18.282 150.769 17.84C151.075 17.3867 151.517 17.0297 152.095 16.769C152.684 16.5083 153.381 16.378 154.186 16.378C155.376 16.378 156.311 16.6727 156.991 17.262C157.682 17.8513 158.079 18.6333 158.181 19.608H155.495C155.449 19.2793 155.302 19.0187 155.053 18.826C154.815 18.6333 154.497 18.537 154.101 18.537C153.761 18.537 153.5 18.605 153.319 18.741C153.137 18.8657 153.047 19.0413 153.047 19.268C153.047 19.54 153.188 19.744 153.472 19.88C153.766 20.016 154.22 20.152 154.832 20.288C155.534 20.4693 156.107 20.6507 156.549 20.832C156.991 21.002 157.376 21.2853 157.705 21.682C158.045 22.0673 158.22 22.5887 158.232 23.246C158.232 23.8013 158.073 24.3 157.756 24.742C157.45 25.1727 157.002 25.5127 156.413 25.762C155.835 26.0113 155.16 26.136 154.39 26.136Z" fill="white"/>
</svg>
